<svg xmlns="http://www.w3.org/2000/svg" xmlns:xlink="http://www.w3.org/1999/xlink" width="500" zoomAndPan="magnify" viewBox="0 0 375 374.999991" height="500" preserveAspectRatio="xMidYMid meet" version="1.0"><defs><g/><clipPath id="8953ab1415"><path d="M 50.320312 173 L 93 173 L 93 227.949219 L 50.320312 227.949219 Z M 50.320312 173 " clip-rule="nonzero"/></clipPath><clipPath id="d3b52f7d59"><path d="M 51 156.699219 L 94.570312 156.699219 L 94.570312 202 L 51 202 Z M 51 156.699219 " clip-rule="nonzero"/></clipPath></defs><g clip-path="url(#8953ab1415)"><path fill="#0063ba" d="M 61.894531 227.882812 C 63.492188 226.464844 66.894531 222.996094 66.894531 219.257812 C 66.859375 215.335938 65.507812 216.265625 63.367188 216.695312 C 61.230469 217.121094 57.042969 217.480469 56.277344 213.21875 C 55.835938 212.09375 54.476562 213.074219 54.800781 211.542969 C 55.117188 210.011719 53.535156 210.492188 53.25 209.691406 C 52.960938 208.890625 54.035156 207.925781 53.996094 206.625 C 53.960938 205.328125 51.09375 205.5 51.304688 203.953125 C 51.523438 202.402344 54.050781 201.492188 53.554688 198.964844 C 53.171875 197.03125 50.308594 194.289062 50.53125 189.953125 C 50.867188 183.269531 58.28125 177.722656 63.988281 175.585938 C 76.261719 170.976562 89.222656 174.097656 91.8125 189.066406 C 92.859375 195.144531 90.816406 201.554688 86.015625 205.75 C 79.164062 211.738281 77.070312 214.839844 85.652344 222.179688 C 81.332031 221.472656 77.542969 223.167969 72.816406 225.613281 C 68.972656 227.601562 64.738281 227.941406 61.894531 227.882812 Z M 61.894531 227.882812 " fill-opacity="1" fill-rule="evenodd"/></g><g clip-path="url(#d3b52f7d59)"><path fill="#0063ba" d="M 79.015625 192.328125 C 79.441406 192.878906 79.695312 193.570312 79.695312 194.324219 L 79.695312 195.507812 C 79.695312 196.953125 78.921875 198.242188 77.746094 198.949219 L 77.730469 199.007812 C 77.320312 200.519531 75.953125 201.566406 74.382812 201.566406 L 71.484375 201.566406 C 69.914062 201.566406 68.535156 200.515625 68.132812 198.992188 L 68.125 198.945312 C 66.945312 198.234375 66.175781 196.949219 66.175781 195.5 L 66.175781 194.3125 C 66.175781 193.558594 66.429688 192.871094 66.855469 192.316406 C 66.464844 191.828125 66.203125 191.234375 66.101562 190.582031 C 66.046875 190.210938 65.957031 189.851562 65.847656 189.5 C 65.695312 189.976562 65.429688 190.429688 65.050781 190.808594 L 62.25 193.605469 C 61.640625 194.214844 60.8125 194.558594 59.953125 194.558594 C 59.09375 194.558594 58.261719 194.214844 57.652344 193.605469 C 56.382812 192.332031 56.386719 190.277344 57.65625 189.007812 L 60.441406 186.222656 C 61.132812 185.515625 62.070312 185.199219 62.984375 185.261719 C 61.980469 183.816406 61.300781 182.171875 60.996094 180.441406 C 60.398438 181.128906 59.519531 181.570312 58.53125 181.570312 L 54.578125 181.570312 C 52.789062 181.570312 51.328125 180.109375 51.328125 178.3125 C 51.328125 176.515625 52.78125 175.0625 54.578125 175.0625 L 58.53125 175.0625 C 59.519531 175.0625 60.398438 175.5 60.996094 176.195312 C 61.308594 174.421875 62.003906 172.777344 62.996094 171.363281 C 62.917969 171.367188 62.832031 171.371094 62.753906 171.371094 C 61.894531 171.371094 61.070312 171.03125 60.460938 170.421875 L 57.652344 167.625 C 56.375 166.351562 56.375 164.292969 57.648438 163.019531 C 58.921875 161.75 60.976562 161.75 62.25 163.019531 L 65.050781 165.824219 C 65.746094 166.519531 66.058594 167.457031 65.992188 168.367188 C 67.410156 167.378906 69.046875 166.6875 70.824219 166.375 C 70.128906 165.78125 69.6875 164.894531 69.6875 163.90625 L 69.6875 159.953125 C 69.6875 158.152344 71.140625 156.699219 72.9375 156.699219 C 74.734375 156.699219 76.1875 158.15625 76.1875 159.953125 L 76.1875 163.90625 C 76.1875 164.894531 75.75 165.777344 75.054688 166.375 C 76.820312 166.6875 78.460938 167.378906 79.878906 168.371094 C 79.808594 167.457031 80.121094 166.523438 80.820312 165.828125 L 83.621094 163.027344 C 84.898438 161.757812 86.949219 161.757812 88.21875 163.027344 C 89.496094 164.304688 89.496094 166.359375 88.21875 167.628906 L 85.421875 170.429688 C 84.8125 171.035156 83.988281 171.378906 83.128906 171.378906 C 83.046875 171.378906 82.960938 171.378906 82.878906 171.367188 C 83.871094 172.785156 84.570312 174.425781 84.878906 176.195312 C 85.476562 175.5 86.359375 175.0625 87.347656 175.0625 L 91.300781 175.0625 C 93.097656 175.0625 94.550781 176.519531 94.550781 178.3125 C 94.550781 180.109375 93.089844 181.570312 91.300781 181.570312 L 87.347656 181.570312 C 86.359375 181.570312 85.476562 181.128906 84.882812 180.4375 C 84.578125 182.171875 83.894531 183.816406 82.882812 185.261719 C 83.792969 185.191406 84.730469 185.511719 85.421875 186.210938 L 88.214844 189.007812 C 89.484375 190.28125 89.484375 192.335938 88.210938 193.605469 C 87.605469 194.214844 86.777344 194.558594 85.917969 194.558594 C 85.058594 194.558594 84.230469 194.214844 83.621094 193.605469 L 80.820312 190.808594 C 80.445312 190.429688 80.179688 189.980469 80.027344 189.507812 C 79.914062 189.855469 79.832031 190.210938 79.777344 190.574219 C 79.675781 191.234375 79.40625 191.832031 79.015625 192.328125 Z M 79.015625 192.328125 " fill-opacity="1" fill-rule="evenodd"/></g><path fill="#ffcc00" d="M 83.921875 187.710938 C 83.480469 187.265625 82.769531 187.265625 82.324219 187.710938 C 81.882812 188.152344 81.882812 188.863281 82.324219 189.304688 L 85.121094 192.105469 C 85.339844 192.324219 85.636719 192.433594 85.917969 192.433594 C 86.203125 192.433594 86.492188 192.324219 86.710938 192.105469 C 87.152344 191.664062 87.152344 190.953125 86.710938 190.507812 Z M 83.921875 187.710938 " fill-opacity="1" fill-rule="evenodd"/><path fill="#ffcc00" d="M 61.960938 168.921875 C 62.171875 169.136719 62.46875 169.242188 62.753906 169.242188 C 63.035156 169.242188 63.332031 169.136719 63.550781 168.921875 C 63.988281 168.476562 63.988281 167.765625 63.550781 167.324219 L 60.746094 164.523438 C 60.304688 164.082031 59.59375 164.082031 59.148438 164.523438 C 58.707031 164.96875 58.707031 165.675781 59.148438 166.117188 Z M 61.960938 168.921875 " fill-opacity="1" fill-rule="evenodd"/><path fill="#ffcc00" d="M 83.128906 169.253906 C 83.410156 169.253906 83.707031 169.140625 83.921875 168.925781 L 86.71875 166.128906 C 87.164062 165.683594 87.164062 164.972656 86.71875 164.535156 C 86.277344 164.085938 85.566406 164.085938 85.121094 164.535156 L 82.324219 167.332031 C 81.882812 167.777344 81.882812 168.488281 82.324219 168.925781 C 82.550781 169.140625 82.832031 169.253906 83.128906 169.253906 Z M 83.128906 169.253906 " fill-opacity="1" fill-rule="evenodd"/><path fill="#ffcc00" d="M 61.960938 187.710938 L 59.160156 190.507812 C 58.714844 190.953125 58.714844 191.664062 59.160156 192.105469 C 59.375 192.324219 59.671875 192.433594 59.953125 192.433594 C 60.238281 192.433594 60.53125 192.324219 60.746094 192.105469 L 63.550781 189.304688 C 63.988281 188.863281 63.988281 188.152344 63.550781 187.710938 C 63.109375 187.265625 62.394531 187.265625 61.960938 187.710938 Z M 61.960938 187.710938 " fill-opacity="1" fill-rule="evenodd"/><path fill="#ffcc00" d="M 91.300781 177.1875 L 87.347656 177.1875 C 86.730469 177.1875 86.21875 177.691406 86.21875 178.3125 C 86.21875 178.933594 86.71875 179.445312 87.347656 179.445312 L 91.300781 179.445312 C 91.917969 179.445312 92.425781 178.941406 92.425781 178.3125 C 92.425781 177.695312 91.929688 177.1875 91.300781 177.1875 Z M 91.300781 177.1875 " fill-opacity="1" fill-rule="evenodd"/><path fill="#ffcc00" d="M 59.660156 178.3125 C 59.660156 177.695312 59.160156 177.1875 58.53125 177.1875 L 54.578125 177.1875 C 53.960938 177.1875 53.453125 177.691406 53.453125 178.3125 C 53.453125 178.933594 53.957031 179.445312 54.578125 179.445312 L 58.53125 179.445312 C 59.160156 179.445312 59.660156 178.941406 59.660156 178.3125 Z M 59.660156 178.3125 " fill-opacity="1" fill-rule="evenodd"/><path fill="#ffcc00" d="M 72.9375 165.03125 C 73.558594 165.03125 74.066406 164.535156 74.066406 163.90625 L 74.066406 159.953125 C 74.066406 159.335938 73.566406 158.820312 72.9375 158.820312 C 72.3125 158.820312 71.8125 159.324219 71.8125 159.953125 L 71.8125 163.90625 C 71.8125 164.535156 72.320312 165.03125 72.9375 165.03125 Z M 72.9375 165.03125 " fill-opacity="1" fill-rule="evenodd"/><path fill="#ffcc00" d="M 82.945312 178.324219 C 82.945312 181.023438 81.871094 183.472656 80.136719 185.265625 C 78.8125 186.636719 77.960938 188.382812 77.675781 190.25 C 77.550781 191.054688 76.859375 191.644531 76.042969 191.644531 L 69.832031 191.644531 C 69.019531 191.644531 68.316406 191.0625 68.203125 190.257812 C 67.90625 188.394531 67.046875 186.625 65.726562 185.261719 C 64.023438 183.488281 62.960938 181.078125 62.933594 178.433594 C 62.878906 172.863281 67.308594 168.359375 72.875 168.316406 C 78.429688 168.273438 82.945312 172.773438 82.945312 178.324219 Z M 82.945312 178.324219 " fill-opacity="1" fill-rule="evenodd"/><path fill="#ffcc00" d="M 77.570312 194.324219 L 77.570312 195.507812 C 77.570312 196.449219 76.878906 197.234375 75.972656 197.371094 L 75.679688 198.449219 C 75.519531 199.035156 74.992188 199.441406 74.382812 199.441406 L 71.484375 199.441406 C 70.875 199.441406 70.347656 199.035156 70.1875 198.449219 L 69.90625 197.371094 C 68.996094 197.230469 68.300781 196.449219 68.300781 195.5 L 68.300781 194.3125 C 68.300781 193.675781 68.8125 193.167969 69.449219 193.167969 L 76.425781 193.167969 C 77.058594 193.175781 77.570312 193.683594 77.570312 194.324219 Z M 77.570312 194.324219 " fill-opacity="1" fill-rule="evenodd"/><g fill="#0063ba" fill-opacity="1"><g transform="translate(94.813196, 211.700863)"><g><path d="M 23.0625 -13.84375 C 24.570312 -13.3125 25.753906 -12.484375 26.609375 -11.359375 C 27.472656 -10.234375 27.90625 -8.875 27.90625 -7.28125 C 27.90625 -4.957031 26.96875 -3.160156 25.09375 -1.890625 C 23.226562 -0.628906 20.523438 0 16.984375 0 L 2.65625 0 L 2.65625 -26.546875 L 16.234375 -26.546875 C 19.617188 -26.546875 22.195312 -25.921875 23.96875 -24.671875 C 25.738281 -23.421875 26.625 -21.734375 26.625 -19.609375 C 26.625 -18.335938 26.3125 -17.203125 25.6875 -16.203125 C 25.070312 -15.210938 24.195312 -14.425781 23.0625 -13.84375 Z M 10.09375 -21.125 L 10.09375 -16 L 15.25 -16 C 17.769531 -16 19.03125 -16.859375 19.03125 -18.578125 C 19.03125 -20.273438 17.769531 -21.125 15.25 -21.125 Z M 16.375 -5.421875 C 19.007812 -5.421875 20.328125 -6.316406 20.328125 -8.109375 C 20.328125 -9.910156 19.007812 -10.8125 16.375 -10.8125 L 10.09375 -10.8125 L 10.09375 -5.421875 Z M 16.375 -5.421875 "/></g></g></g><g fill="#0063ba" fill-opacity="1"><g transform="translate(120.858874, 211.700863)"><g><path d="M 9.171875 -18.09375 C 9.910156 -19.019531 10.863281 -19.71875 12.03125 -20.1875 C 13.207031 -20.65625 14.554688 -20.890625 16.078125 -20.890625 L 16.078125 -14.40625 C 15.421875 -14.488281 14.878906 -14.53125 14.453125 -14.53125 C 12.910156 -14.53125 11.703125 -14.109375 10.828125 -13.265625 C 9.953125 -12.429688 9.515625 -11.15625 9.515625 -9.4375 L 9.515625 0 L 2.3125 0 L 2.3125 -20.546875 L 9.171875 -20.546875 Z M 9.171875 -18.09375 "/></g></g></g><g fill="#0063ba" fill-opacity="1"><g transform="translate(134.545005, 211.700863)"><g><path d="M 2.3125 -20.546875 L 9.515625 -20.546875 L 9.515625 0 L 2.3125 0 Z M 5.921875 -22.828125 C 4.609375 -22.828125 3.546875 -23.191406 2.734375 -23.921875 C 1.921875 -24.660156 1.515625 -25.570312 1.515625 -26.65625 C 1.515625 -27.75 1.921875 -28.660156 2.734375 -29.390625 C 3.546875 -30.117188 4.609375 -30.484375 5.921875 -30.484375 C 7.234375 -30.484375 8.289062 -30.132812 9.09375 -29.4375 C 9.90625 -28.75 10.3125 -27.859375 10.3125 -26.765625 C 10.3125 -25.628906 9.90625 -24.6875 9.09375 -23.9375 C 8.289062 -23.195312 7.234375 -22.828125 5.921875 -22.828125 Z M 5.921875 -22.828125 "/></g></g></g><g fill="#0063ba" fill-opacity="1"><g transform="translate(143.302477, 211.700863)"><g><path d="M 24.421875 -20.546875 L 24.421875 -3.75 C 24.421875 0.0625 23.382812 2.921875 21.3125 4.828125 C 19.238281 6.742188 16.253906 7.703125 12.359375 7.703125 C 10.335938 7.703125 8.441406 7.472656 6.671875 7.015625 C 4.898438 6.554688 3.394531 5.882812 2.15625 5 L 4.78125 -0.03125 C 5.613281 0.644531 6.664062 1.175781 7.9375 1.5625 C 9.21875 1.957031 10.476562 2.15625 11.71875 2.15625 C 13.613281 2.15625 15.003906 1.738281 15.890625 0.90625 C 16.773438 0.0703125 17.21875 -1.164062 17.21875 -2.8125 L 17.21875 -3.484375 C 15.820312 -1.867188 13.785156 -1.0625 11.109375 -1.0625 C 9.285156 -1.0625 7.601562 -1.472656 6.0625 -2.296875 C 4.519531 -3.117188 3.296875 -4.28125 2.390625 -5.78125 C 1.484375 -7.289062 1.03125 -9.03125 1.03125 -11 C 1.03125 -12.945312 1.484375 -14.671875 2.390625 -16.171875 C 3.296875 -17.679688 4.519531 -18.84375 6.0625 -19.65625 C 7.601562 -20.476562 9.285156 -20.890625 11.109375 -20.890625 C 14.046875 -20.890625 16.195312 -19.941406 17.5625 -18.046875 L 17.5625 -20.546875 Z M 12.8125 -6.78125 C 14.101562 -6.78125 15.171875 -7.171875 16.015625 -7.953125 C 16.867188 -8.742188 17.296875 -9.757812 17.296875 -11 C 17.296875 -12.238281 16.878906 -13.242188 16.046875 -14.015625 C 15.210938 -14.785156 14.132812 -15.171875 12.8125 -15.171875 C 11.5 -15.171875 10.421875 -14.785156 9.578125 -14.015625 C 8.734375 -13.242188 8.3125 -12.238281 8.3125 -11 C 8.3125 -9.757812 8.738281 -8.742188 9.59375 -7.953125 C 10.457031 -7.171875 11.53125 -6.78125 12.8125 -6.78125 Z M 12.8125 -6.78125 "/></g></g></g><g fill="#0063ba" fill-opacity="1"><g transform="translate(166.921743, 211.700863)"><g><path d="M 15.703125 -20.890625 C 18.253906 -20.890625 20.304688 -20.128906 21.859375 -18.609375 C 23.410156 -17.097656 24.1875 -14.8125 24.1875 -11.75 L 24.1875 0 L 16.984375 0 L 16.984375 -10.578125 C 16.984375 -13.390625 15.859375 -14.796875 13.609375 -14.796875 C 12.367188 -14.796875 11.375 -14.390625 10.625 -13.578125 C 9.882812 -12.765625 9.515625 -11.550781 9.515625 -9.9375 L 9.515625 0 L 2.3125 0 L 2.3125 -28.140625 L 9.515625 -28.140625 L 9.515625 -18.65625 C 10.296875 -19.382812 11.21875 -19.9375 12.28125 -20.3125 C 13.34375 -20.695312 14.484375 -20.890625 15.703125 -20.890625 Z M 15.703125 -20.890625 "/></g></g></g><g fill="#0063ba" fill-opacity="1"><g transform="translate(190.199792, 211.700863)"><g><path d="M 16.5 -0.828125 C 15.882812 -0.453125 15.140625 -0.164062 14.265625 0.03125 C 13.398438 0.238281 12.472656 0.34375 11.484375 0.34375 C 8.804688 0.34375 6.742188 -0.3125 5.296875 -1.625 C 3.859375 -2.945312 3.140625 -4.910156 3.140625 -7.515625 L 3.140625 -14.40625 L 0.15625 -14.40625 L 0.15625 -19.796875 L 3.140625 -19.796875 L 3.140625 -25.140625 L 10.359375 -25.140625 L 10.359375 -19.796875 L 15.0625 -19.796875 L 15.0625 -14.40625 L 10.359375 -14.40625 L 10.359375 -7.578125 C 10.359375 -6.847656 10.550781 -6.273438 10.9375 -5.859375 C 11.332031 -5.441406 11.859375 -5.234375 12.515625 -5.234375 C 13.347656 -5.234375 14.082031 -5.445312 14.71875 -5.875 Z M 16.5 -0.828125 "/></g></g></g><g fill="#0063ba" fill-opacity="1"><g transform="translate(204.037573, 211.700863)"><g/></g></g><g fill="#0063ba" fill-opacity="1"><g transform="translate(211.960966, 211.700863)"><g><path d="M 26.625 0 L 26.546875 -14.0625 L 19.71875 -2.609375 L 16.375 -2.609375 L 9.59375 -13.6875 L 9.59375 0 L 2.65625 0 L 2.65625 -26.546875 L 8.828125 -26.546875 L 18.171875 -11.21875 L 27.265625 -26.546875 L 33.453125 -26.546875 L 33.515625 0 Z M 26.625 0 "/></g></g></g><g fill="#0063ba" fill-opacity="1"><g transform="translate(245.020493, 211.700863)"><g><path d="M 2.3125 -20.546875 L 9.515625 -20.546875 L 9.515625 0 L 2.3125 0 Z M 5.921875 -22.828125 C 4.609375 -22.828125 3.546875 -23.191406 2.734375 -23.921875 C 1.921875 -24.660156 1.515625 -25.570312 1.515625 -26.65625 C 1.515625 -27.75 1.921875 -28.660156 2.734375 -29.390625 C 3.546875 -30.117188 4.609375 -30.484375 5.921875 -30.484375 C 7.234375 -30.484375 8.289062 -30.132812 9.09375 -29.4375 C 9.90625 -28.75 10.3125 -27.859375 10.3125 -26.765625 C 10.3125 -25.628906 9.90625 -24.6875 9.09375 -23.9375 C 8.289062 -23.195312 7.234375 -22.828125 5.921875 -22.828125 Z M 5.921875 -22.828125 "/></g></g></g><g fill="#0063ba" fill-opacity="1"><g transform="translate(253.777962, 211.700863)"><g><path d="M 15.703125 -20.890625 C 18.253906 -20.890625 20.304688 -20.128906 21.859375 -18.609375 C 23.410156 -17.097656 24.1875 -14.8125 24.1875 -11.75 L 24.1875 0 L 16.984375 0 L 16.984375 -10.578125 C 16.984375 -13.390625 15.859375 -14.796875 13.609375 -14.796875 C 12.367188 -14.796875 11.375 -14.390625 10.625 -13.578125 C 9.882812 -12.765625 9.515625 -11.550781 9.515625 -9.9375 L 9.515625 0 L 2.3125 0 L 2.3125 -20.546875 L 9.171875 -20.546875 L 9.171875 -18.3125 C 9.984375 -19.144531 10.945312 -19.78125 12.0625 -20.21875 C 13.175781 -20.664062 14.390625 -20.890625 15.703125 -20.890625 Z M 15.703125 -20.890625 "/></g></g></g><g fill="#0063ba" fill-opacity="1"><g transform="translate(277.056005, 211.700863)"><g><path d="M 24.15625 -28.140625 L 24.15625 0 L 17.296875 0 L 17.296875 -2.046875 C 15.953125 -0.453125 13.941406 0.34375 11.265625 0.34375 C 9.390625 0.34375 7.679688 -0.09375 6.140625 -0.96875 C 4.597656 -1.84375 3.378906 -3.085938 2.484375 -4.703125 C 1.585938 -6.316406 1.140625 -8.1875 1.140625 -10.3125 C 1.140625 -12.4375 1.585938 -14.300781 2.484375 -15.90625 C 3.378906 -17.507812 4.597656 -18.738281 6.140625 -19.59375 C 7.679688 -20.457031 9.390625 -20.890625 11.265625 -20.890625 C 13.710938 -20.890625 15.609375 -20.179688 16.953125 -18.765625 L 16.953125 -28.140625 Z M 12.78125 -5.390625 C 14.019531 -5.390625 15.039062 -5.820312 15.84375 -6.6875 C 16.65625 -7.5625 17.0625 -8.769531 17.0625 -10.3125 C 17.0625 -11.832031 16.660156 -13.019531 15.859375 -13.875 C 15.066406 -14.738281 14.039062 -15.171875 12.78125 -15.171875 C 11.519531 -15.171875 10.484375 -14.738281 9.671875 -13.875 C 8.859375 -13.019531 8.453125 -11.832031 8.453125 -10.3125 C 8.453125 -8.769531 8.859375 -7.5625 9.671875 -6.6875 C 10.484375 -5.820312 11.519531 -5.390625 12.78125 -5.390625 Z M 12.78125 -5.390625 "/></g></g></g><g fill="#0063ba" fill-opacity="1"><g transform="translate(300.409875, 211.700863)"><g><path d="M 9.78125 0.34375 C 8.0625 0.34375 6.367188 0.148438 4.703125 -0.234375 C 3.035156 -0.628906 1.695312 -1.144531 0.6875 -1.78125 L 2.84375 -6.71875 C 3.78125 -6.132812 4.890625 -5.671875 6.171875 -5.328125 C 7.460938 -4.984375 8.742188 -4.8125 10.015625 -4.8125 C 11.171875 -4.8125 11.992188 -4.929688 12.484375 -5.171875 C 12.984375 -5.410156 13.234375 -5.757812 13.234375 -6.21875 C 13.234375 -6.675781 12.9375 -7 12.34375 -7.1875 C 11.75 -7.375 10.804688 -7.554688 9.515625 -7.734375 C 7.867188 -7.941406 6.472656 -8.207031 5.328125 -8.53125 C 4.179688 -8.863281 3.1875 -9.472656 2.34375 -10.359375 C 1.507812 -11.242188 1.09375 -12.476562 1.09375 -14.0625 C 1.09375 -15.382812 1.484375 -16.554688 2.265625 -17.578125 C 3.054688 -18.597656 4.203125 -19.40625 5.703125 -20 C 7.210938 -20.59375 9.015625 -20.890625 11.109375 -20.890625 C 12.597656 -20.890625 14.078125 -20.738281 15.546875 -20.4375 C 17.015625 -20.132812 18.238281 -19.707031 19.21875 -19.15625 L 17.0625 -14.265625 C 15.238281 -15.273438 13.269531 -15.78125 11.15625 -15.78125 C 10.007812 -15.78125 9.171875 -15.644531 8.640625 -15.375 C 8.109375 -15.113281 7.84375 -14.765625 7.84375 -14.328125 C 7.84375 -13.847656 8.132812 -13.515625 8.71875 -13.328125 C 9.300781 -13.140625 10.265625 -12.941406 11.609375 -12.734375 C 13.296875 -12.484375 14.695312 -12.191406 15.8125 -11.859375 C 16.925781 -11.535156 17.894531 -10.9375 18.71875 -10.0625 C 19.539062 -9.195312 19.953125 -7.976562 19.953125 -6.40625 C 19.953125 -5.113281 19.554688 -3.957031 18.765625 -2.9375 C 17.984375 -1.914062 16.828125 -1.113281 15.296875 -0.53125 C 13.765625 0.0507812 11.925781 0.34375 9.78125 0.34375 Z M 9.78125 0.34375 "/></g></g></g><g fill="#000000" fill-opacity="1"><g transform="translate(214.368726, 223.540766)"><g><path d="M 2.1875 -5.4375 L 0.03125 -5.4375 L 0.03125 -6.6875 L 5.875 -6.6875 L 5.875 -5.4375 L 3.734375 -5.4375 L 3.734375 0 L 2.1875 0 Z M 2.1875 -5.4375 "/></g></g></g><g fill="#000000" fill-opacity="1"><g transform="translate(227.915969, 223.540766)"><g><path d="M 3.765625 0.109375 C 2.804688 0.109375 2.0625 -0.148438 1.53125 -0.671875 C 1 -1.203125 0.734375 -1.957031 0.734375 -2.9375 L 0.734375 -6.6875 L 2.28125 -6.6875 L 2.28125 -3 C 2.28125 -1.800781 2.78125 -1.203125 3.78125 -1.203125 C 4.257812 -1.203125 4.625 -1.347656 4.875 -1.640625 C 5.132812 -1.929688 5.265625 -2.382812 5.265625 -3 L 5.265625 -6.6875 L 6.796875 -6.6875 L 6.796875 -2.9375 C 6.796875 -1.957031 6.53125 -1.203125 6 -0.671875 C 5.46875 -0.148438 4.722656 0.109375 3.765625 0.109375 Z M 3.765625 0.109375 "/></g></g></g><g fill="#000000" fill-opacity="1"><g transform="translate(243.086843, 223.540766)"><g><path d="M 2.1875 -5.4375 L 0.03125 -5.4375 L 0.03125 -6.6875 L 5.875 -6.6875 L 5.875 -5.4375 L 3.734375 -5.4375 L 3.734375 0 L 2.1875 0 Z M 2.1875 -5.4375 "/></g></g></g><g fill="#000000" fill-opacity="1"><g transform="translate(256.634086, 223.540766)"><g><path d="M 4.03125 0.109375 C 3.34375 0.109375 2.71875 -0.0351562 2.15625 -0.328125 C 1.59375 -0.628906 1.15625 -1.039062 0.84375 -1.5625 C 0.53125 -2.09375 0.375 -2.6875 0.375 -3.34375 C 0.375 -4 0.53125 -4.585938 0.84375 -5.109375 C 1.15625 -5.640625 1.59375 -6.054688 2.15625 -6.359375 C 2.71875 -6.660156 3.34375 -6.8125 4.03125 -6.8125 C 4.726562 -6.8125 5.351562 -6.660156 5.90625 -6.359375 C 6.457031 -6.054688 6.894531 -5.640625 7.21875 -5.109375 C 7.539062 -4.585938 7.703125 -4 7.703125 -3.34375 C 7.703125 -2.6875 7.539062 -2.09375 7.21875 -1.5625 C 6.894531 -1.039062 6.457031 -0.628906 5.90625 -0.328125 C 5.351562 -0.0351562 4.726562 0.109375 4.03125 0.109375 Z M 4.03125 -1.203125 C 4.425781 -1.203125 4.78125 -1.289062 5.09375 -1.46875 C 5.414062 -1.65625 5.664062 -1.910156 5.84375 -2.234375 C 6.03125 -2.554688 6.125 -2.925781 6.125 -3.34375 C 6.125 -3.757812 6.03125 -4.128906 5.84375 -4.453125 C 5.664062 -4.773438 5.414062 -5.023438 5.09375 -5.203125 C 4.78125 -5.390625 4.425781 -5.484375 4.03125 -5.484375 C 3.632812 -5.484375 3.273438 -5.390625 2.953125 -5.203125 C 2.640625 -5.023438 2.390625 -4.773438 2.203125 -4.453125 C 2.023438 -4.128906 1.9375 -3.757812 1.9375 -3.34375 C 1.9375 -2.925781 2.023438 -2.554688 2.203125 -2.234375 C 2.390625 -1.910156 2.640625 -1.65625 2.953125 -1.46875 C 3.273438 -1.289062 3.632812 -1.203125 4.03125 -1.203125 Z M 4.03125 -1.203125 "/></g></g></g><g fill="#000000" fill-opacity="1"><g transform="translate(272.339811, 223.540766)"><g><path d="M 5.0625 0 L 3.765625 -1.859375 L 2.34375 -1.859375 L 2.34375 0 L 0.796875 0 L 0.796875 -6.6875 L 3.6875 -6.6875 C 4.28125 -6.6875 4.796875 -6.585938 5.234375 -6.390625 C 5.671875 -6.191406 6.003906 -5.910156 6.234375 -5.546875 C 6.472656 -5.191406 6.59375 -4.765625 6.59375 -4.265625 C 6.59375 -3.765625 6.472656 -3.332031 6.234375 -2.96875 C 5.992188 -2.613281 5.65625 -2.34375 5.21875 -2.15625 L 6.71875 0 Z M 5.03125 -4.265625 C 5.03125 -4.640625 4.90625 -4.925781 4.65625 -5.125 C 4.414062 -5.332031 4.066406 -5.4375 3.609375 -5.4375 L 2.34375 -5.4375 L 2.34375 -3.09375 L 3.609375 -3.09375 C 4.066406 -3.09375 4.414062 -3.191406 4.65625 -3.390625 C 4.90625 -3.597656 5.03125 -3.890625 5.03125 -4.265625 Z M 5.03125 -4.265625 "/></g></g></g><g fill="#000000" fill-opacity="1"><g transform="translate(287.004487, 223.540766)"><g><path d="M 0.796875 -6.6875 L 2.34375 -6.6875 L 2.34375 0 L 0.796875 0 Z M 0.796875 -6.6875 "/></g></g></g><g fill="#000000" fill-opacity="1"><g transform="translate(297.781999, 223.540766)"><g><path d="M 6.9375 -6.6875 L 6.9375 0 L 5.65625 0 L 2.328125 -4.0625 L 2.328125 0 L 0.796875 0 L 0.796875 -6.6875 L 2.078125 -6.6875 L 5.40625 -2.625 L 5.40625 -6.6875 Z M 6.9375 -6.6875 "/></g></g></g><g fill="#000000" fill-opacity="1"><g transform="translate(313.1439, 223.540766)"><g><path d="M 5.3125 -3.453125 L 6.734375 -3.453125 L 6.734375 -0.734375 C 6.367188 -0.460938 5.945312 -0.253906 5.46875 -0.109375 C 4.988281 0.0351562 4.507812 0.109375 4.03125 0.109375 C 3.332031 0.109375 2.703125 -0.0351562 2.140625 -0.328125 C 1.585938 -0.628906 1.15625 -1.039062 0.84375 -1.5625 C 0.53125 -2.09375 0.375 -2.6875 0.375 -3.34375 C 0.375 -4.007812 0.53125 -4.601562 0.84375 -5.125 C 1.15625 -5.65625 1.59375 -6.066406 2.15625 -6.359375 C 2.71875 -6.660156 3.347656 -6.8125 4.046875 -6.8125 C 4.640625 -6.8125 5.175781 -6.710938 5.65625 -6.515625 C 6.132812 -6.316406 6.535156 -6.03125 6.859375 -5.65625 L 5.859375 -4.734375 C 5.378906 -5.234375 4.800781 -5.484375 4.125 -5.484375 C 3.695312 -5.484375 3.316406 -5.394531 2.984375 -5.21875 C 2.660156 -5.039062 2.40625 -4.789062 2.21875 -4.46875 C 2.03125 -4.144531 1.9375 -3.769531 1.9375 -3.34375 C 1.9375 -2.925781 2.03125 -2.554688 2.21875 -2.234375 C 2.40625 -1.910156 2.660156 -1.65625 2.984375 -1.46875 C 3.316406 -1.289062 3.691406 -1.203125 4.109375 -1.203125 C 4.554688 -1.203125 4.957031 -1.296875 5.3125 -1.484375 Z M 5.3125 -3.453125 "/></g></g></g></svg>